<svg width="20" height="20" viewBox="0 0 20 20" fill="none" xmlns="http://www.w3.org/2000/svg">
<path d="M14.7143 5.7143H15.5714M4.85716 1.42859H15.1429C17.0364 1.42859 18.5714 2.96361 18.5714 4.85716V15.1429C18.5714 17.0364 17.0364 18.5714 15.1429 18.5714H4.85716C2.96361 18.5714 1.42859 17.0364 1.42859 15.1429V4.85716C1.42859 2.96361 2.96361 1.42859 4.85716 1.42859ZM10 13.4286C8.10647 13.4286 6.57145 11.8936 6.57145 10C6.57145 8.10647 8.10647 6.57145 10 6.57145C11.8936 6.57145 13.4286 8.10647 13.4286 10C13.4286 11.8936 11.8936 13.4286 10 13.4286Z" stroke="#939393" stroke-width="1.5"/>
</svg>
