<svg width="24" height="25" viewBox="0 0 24 25" fill="none" xmlns="http://www.w3.org/2000/svg">
<path d="M5.96852 2.34117C6.29197 2.08242 6.34441 1.61045 6.08565 1.287C5.82689 0.963553 5.35493 0.911112 5.03148 1.16987L2.53148 3.16987C2.20803 3.42863 2.15559 3.9006 2.41435 4.22404C2.67311 4.54749 3.14507 4.59993 3.46852 4.34117L5.96852 2.34117Z" fill="#27CA7D"/>
<path d="M18.9685 1.16987C18.6451 0.911112 18.1731 0.963553 17.9143 1.287C17.6556 1.61045 17.708 2.08242 18.0315 2.34117L20.5315 4.34117C20.8549 4.59993 21.3269 4.54749 21.5857 4.22404C21.8444 3.9006 21.792 3.42863 21.4685 3.16987L18.9685 1.16987Z" fill="#27CA7D"/>
<path d="M12.75 8.50552C12.75 8.09131 12.4142 7.75552 12 7.75552C11.5858 7.75552 11.25 8.09131 11.25 8.50552L11.25 12.0055C11.25 13.2482 12.2574 14.2555 13.5 14.2555H15C15.4142 14.2555 15.75 13.9197 15.75 13.5055C15.75 13.0913 15.4142 12.7555 15 12.7555H13.5C13.0858 12.7555 12.75 12.4197 12.75 12.0055L12.75 8.50552Z" fill="#27CA7D"/>
<path fill-rule="evenodd" clip-rule="evenodd" d="M12 1.75552C6.06294 1.75552 1.25 6.56846 1.25 12.5055C1.25 18.4426 6.06294 23.2555 12 23.2555C17.9371 23.2555 22.75 18.4426 22.75 12.5055C22.75 6.56846 17.9371 1.75552 12 1.75552ZM2.75 12.5055C2.75 7.39689 6.89137 3.25552 12 3.25552C17.1086 3.25552 21.25 7.39689 21.25 12.5055C21.25 17.6142 17.1086 21.7555 12 21.7555C6.89137 21.7555 2.75 17.6142 2.75 12.5055Z" fill="#27CA7D"/>
</svg>
