<svg width="20" height="18" viewBox="0 0 20 18" fill="none" xmlns="http://www.w3.org/2000/svg">
<path d="M18.545 1.71423L19.2933 1.66462C19.2734 1.36376 19.0752 1.1041 18.7903 1.00548C18.5054 0.906866 18.1891 0.988469 17.9874 1.21263L18.545 1.71423ZM18.0724 5.33738C18.0724 4.92317 17.7366 4.58738 17.3224 4.58738C16.9082 4.58738 16.5724 4.92317 16.5724 5.33738H18.0724ZM10 6.42852V7.17852H10.75V6.42852H10ZM2.65119 1.71423L3.35357 1.45125C3.24892 1.17174 2.9885 0.980889 2.69046 0.965262C2.39241 0.949635 2.11347 1.11221 1.98016 1.37924L2.65119 1.71423ZM7.42859 12.8571L7.95933 13.387C8.14287 13.2032 8.21822 12.9375 8.1585 12.6847C8.09878 12.4319 7.91249 12.2279 7.66609 12.1457L7.42859 12.8571ZM1.42859 15.1836V14.4336C1.09819 14.4336 0.806705 14.6498 0.710847 14.966C0.61499 15.2822 0.737339 15.6239 1.01212 15.8074L1.42859 15.1836ZM16.387 2.90613L15.8307 3.40914L16.101 3.70801L16.4993 3.64767L16.387 2.90613ZM17.7966 1.76385C17.8593 2.70934 17.7997 3.26551 17.6546 3.67457C17.515 4.06796 17.2707 4.39845 16.8035 4.84619L17.8413 5.92922C18.3843 5.40886 18.8165 4.8858 19.0683 4.17606C19.3145 3.482 19.361 2.68549 19.2933 1.66462L17.7966 1.76385ZM18.0724 6.22953V5.3877H16.5724V6.22953H18.0724ZM18.0724 5.3877V5.33738H16.5724V5.3877H18.0724ZM9.25002 5.57138V6.42852H10.75V5.57138H9.25002ZM13.7048 0.964233C11.199 0.964233 9.25002 3.1398 9.25002 5.57138H10.75C10.75 3.88977 12.1038 2.46423 13.7048 2.46423V0.964233ZM16.5724 6.22953C16.5724 11.4516 12.184 15.9642 7.00002 15.9642V17.4642C13.0417 17.4642 18.0724 12.2504 18.0724 6.22953H16.5724ZM1.94881 1.97722C2.63773 3.81719 5.20345 7.17852 10 7.17852V5.67852C5.99386 5.67852 3.88724 2.87658 3.35357 1.45125L1.94881 1.97722ZM1.98016 1.37924C0.686912 3.96974 0.45079 6.52833 1.36779 8.72279C2.2848 10.9173 4.29373 12.6012 7.19109 13.5685L7.66609 12.1457C5.06174 11.2762 3.45937 9.8377 2.75181 8.14445C2.04424 6.45116 2.17027 4.35669 3.32222 2.04923L1.98016 1.37924ZM6.89785 12.3272C6.18958 13.0365 4.12038 14.4336 1.42859 14.4336V15.9336C4.60528 15.9336 7.03749 14.3103 7.95933 13.387L6.89785 12.3272ZM16.9433 2.40311C16.1454 1.5206 14.9896 0.964233 13.7048 0.964233V2.46423C14.5476 2.46423 15.3049 2.82756 15.8307 3.40914L16.9433 2.40311ZM16.4993 3.64767C17.4633 3.50167 18.4005 2.9963 19.1026 2.21584L17.9874 1.21263C17.5085 1.745 16.882 2.07261 16.2747 2.16458L16.4993 3.64767ZM1.01212 15.8074C3.0084 17.1403 4.93142 17.4642 7.00002 17.4642V15.9642C5.11742 15.9642 3.51658 15.676 1.84506 14.5599L1.01212 15.8074Z" fill="#939393"/>
</svg>
