<svg width="20" height="16" viewBox="0 0 20 16" fill="none" xmlns="http://www.w3.org/2000/svg">
<path d="M2.88651 14.2916L2.73942 15.027H2.73942L2.88651 14.2916ZM17.1135 14.2916L17.2606 15.027L17.1135 14.2916ZM17.2112 1.83097L17.3683 1.09762V1.09762L17.2112 1.83097ZM2.78884 1.83097L2.94598 2.56432L2.94598 2.56432L2.78884 1.83097ZM8.28573 5.42858L8.6716 4.78546C8.43991 4.64644 8.15134 4.6428 7.91621 4.77593C7.68108 4.90906 7.53573 5.15837 7.53573 5.42858H8.28573ZM8.28573 10.5714H7.53573C7.53573 10.8416 7.68108 11.091 7.91621 11.2241C8.15134 11.3572 8.43991 11.3536 8.6716 11.2146L8.28573 10.5714ZM12.5714 8L12.9573 8.64312C13.1832 8.50758 13.3214 8.26345 13.3214 8C13.3214 7.73656 13.1832 7.49243 12.9573 7.35688L12.5714 8ZM0.678589 3.51358V12.5132H2.17859V3.51358H0.678589ZM19.3214 12.5132V3.51358H17.8214V12.5132H19.3214ZM2.73942 15.027C7.53236 15.9856 12.4677 15.9856 17.2606 15.027L16.9664 13.5562C12.3677 14.4759 7.63234 14.4759 3.0336 13.5562L2.73942 15.027ZM17.3683 1.09762C12.5113 0.0568155 7.48878 0.0568154 2.63169 1.09762L2.94598 2.56432C7.59589 1.56791 12.4041 1.56791 17.0541 2.56432L17.3683 1.09762ZM19.3214 3.51358C19.3214 2.3485 18.5076 1.34174 17.3683 1.09762L17.0541 2.56432C17.5017 2.66024 17.8214 3.05581 17.8214 3.51358H19.3214ZM17.8214 12.5132C17.8214 13.0202 17.4636 13.4567 16.9664 13.5562L17.2606 15.027C18.4589 14.7874 19.3214 13.7352 19.3214 12.5132H17.8214ZM0.678589 12.5132C0.678589 13.7352 1.54114 14.7874 2.73942 15.027L3.0336 13.5562C2.53645 13.4567 2.17859 13.0202 2.17859 12.5132H0.678589ZM2.17859 3.51358C2.17859 3.05581 2.49837 2.66024 2.94598 2.56432L2.63169 1.09762C1.49247 1.34174 0.678589 2.3485 0.678589 3.51358H2.17859ZM7.53573 5.42858V10.5714H9.03573V5.42858H7.53573ZM8.6716 11.2146L12.9573 8.64312L12.1856 7.35688L7.89986 9.92831L8.6716 11.2146ZM12.9573 7.35688L8.6716 4.78546L7.89986 6.0717L12.1856 8.64312L12.9573 7.35688Z" fill="#939393"/>
</svg>
